<?xml version="1.0" standalone="no"?>
<!DOCTYPE svg PUBLIC "-//W3C//DTD SVG 20010904//EN"
 "http://www.w3.org/TR/2001/REC-SVG-20010904/DTD/svg10.dtd">
<svg version="1.0" xmlns="http://www.w3.org/2000/svg"
 width="1000.000000pt" height="1000.000000pt" viewBox="0 0 1000.000000 1000.000000"
 preserveAspectRatio="xMidYMid meet">
<metadata>
Created by potrace 1.11, written by Peter Selinger 2001-2013
</metadata>
<g transform="translate(0.000000,1000.000000) scale(0.100000,-0.100000)"
fill="#000000" stroke="none">
<path d="M4620 7894 c-549 -66 -1077 -288 -1512 -637 -132 -105 -340 -313
-445 -445 -295 -367 -508 -820 -597 -1267 -40 -201 -56 -369 -56 -595 0 -485
92 -882 305 -1315 143 -292 325 -546 560 -780 234 -235 488 -417 780 -560 433
-213 830 -305 1315 -305 485 0 882 92 1315 305 292 143 546 325 780 560 235
234 417 488 560 780 213 433 305 830 305 1315 0 485 -92 882 -305 1315 -143
292 -325 546 -560 780 -477 477 -1089 773 -1760 850 -162 19 -526 18 -685 -1z
m625 -325 c378 -35 786 -175 1121 -385 322 -201 637 -516 838 -838 208 -332
344 -724 386 -1115 14 -133 14 -429 0 -562 -65 -602 -328 -1147 -760 -1579
-432 -432 -977 -695 -1579 -760 -133 -14 -429 -14 -562 0 -602 65 -1147 328
-1579 760 -432 432 -695 977 -760 1579 -14 133 -14 429 0 562 65 602 328 1147
760 1579 571 571 1314 835 2135 759z"/>
</g>
</svg>
